<svg id="Layer_1" data-name="Layer 1" xmlns="http://www.w3.org/2000/svg" viewBox="0 0 404.89 436.29"><defs><style>.cls-1{fill:#445432;}</style></defs><path class="cls-1" d="M222.85,348.2a104.15,104.15,0,0,1-8.68-29.44c-2.78-22,4.39-38.05,20.76-46.46a17,17,0,0,0,9.41-11.82c4.38-19.12-16.16-51.86-24.45-62.86l8-6c1.33,1.76,32.52,43.53,26.21,71.1a26.81,26.81,0,0,1-14.59,18.5c-30.24,15.54-7.9,62.13-7.67,62.6Z" transform="translate(-2.05 -2.5)"/><path class="cls-1" d="M169,140.14s-16.17,70.48,56.45,57.07c0,0,11.93-69.69-56.45-57.07" transform="translate(-2.05 -2.5)"/><path class="cls-1" d="M298.35,143.13s-72-23-74.46,54.48c0,0,72.13,18.47,74.46-54.48" transform="translate(-2.05 -2.5)"/><path class="cls-1" d="M231,438.79c-90.75,0-182.63-66.4-182.63-193.29,0-64.62,18.44-125.44,51.93-171.24C134.1,28,179.22,2.5,227.34,2.5S320.58,28,354.41,74.26c33.49,45.8,51.93,106.62,51.93,171.24,0,60.25-18.86,110.53-54.52,145.42C320.26,421.79,277.34,438.79,231,438.79ZM227.34,12.5c-93.19,0-169,104.52-169,233,0,120.33,86.85,183.29,172.63,183.29,43.74,0,84.17-16,113.85-45,33.7-33,51.52-80.78,51.52-138.27C396.34,117,320.52,12.5,227.34,12.5Z" transform="translate(-2.05 -2.5)"/><path class="cls-1" d="M166.05,363.5a23,23,0,1,1,23-23A23,23,0,0,1,166.05,363.5Zm0-36a13,13,0,1,0,13,13A13,13,0,0,0,166.05,327.5Z" transform="translate(-2.05 -2.5)"/><path class="cls-1" d="M289.55,363.5a23,23,0,1,1,23-23A23,23,0,0,1,289.55,363.5Zm0-36a13,13,0,1,0,13,13A13,13,0,0,0,289.55,327.5Z" transform="translate(-2.05 -2.5)"/><path class="cls-1" d="M227.8,387a23,23,0,1,1,23-23A23,23,0,0,1,227.8,387Zm0-36a13,13,0,1,0,13,13A13,13,0,0,0,227.8,351Z" transform="translate(-2.05 -2.5)"/><path class="cls-1" d="M231.58,438.79C140.82,438.79,49,372.39,49,245.5c0-64.62,18.44-125.44,51.92-171.24C134.7,28,179.83,2.5,228,2.5S321.19,28,355,74.26C388.5,120.06,407,180.88,407,245.5c0,60.25-18.86,110.53-54.53,145.42C320.87,421.79,278,438.79,231.58,438.79ZM228,12.5C134.76,12.5,59,117,59,245.5c0,120.33,86.84,183.29,172.63,183.29,43.74,0,84.17-16,113.85-45C379.13,350.81,397,303,397,245.5,397,117,321.13,12.5,228,12.5Z" transform="translate(-2.05 -2.5)"/><path class="cls-1" d="M29.55,157a5,5,0,0,1-5-5c0-55.44,23.13-92.83,42.53-114.43C88.13,14.13,109,3.92,109.88,3.5a5,5,0,1,1,4.35,9h0c-.2.1-20.25,10-40,32.06C47.91,74.05,34.55,110.19,34.55,152A5,5,0,0,1,29.55,157Z" transform="translate(-2.05 -2.5)"/><path class="cls-1" d="M7.05,92.5a5,5,0,0,1-5-5c0-56.26,45.31-82.74,47.24-83.84a5,5,0,1,1,5,8.68c-.58.33-42.2,24.93-42.2,75.16A5,5,0,0,1,7.05,92.5Z" transform="translate(-2.05 -2.5)"/><path class="cls-1" d="M303.39,242.75H151.89a17,17,0,0,1-17-17v-120a17,17,0,0,1,17-17h151.5a17,17,0,0,1,17,17v120A17,17,0,0,1,303.39,242.75Zm-151.5-144a7,7,0,0,0-7,7v120a7,7,0,0,0,7,7h151.5a7,7,0,0,0,7-7v-120a7,7,0,0,0-7-7Z" transform="translate(-2.05 -2.5)"/><path class="cls-1" d="M55.59,242.75a5,5,0,0,1-3.94-8.08c.65-.83,16.16-20.35,35.54-20.37h0c7.77,0,14.92,3,21.32,9.09,5.73-8.34,16.65-17.1,32.66-13.32a5,5,0,0,1-2.29,9.73c-17.23-4.06-24.41,13.25-24.71,14a5,5,0,0,1-8.58,1.23C100,227.81,93.94,224.3,87.23,224.3h0c-14.5,0-27.57,16.37-27.7,16.54A5,5,0,0,1,55.59,242.75Z" transform="translate(-2.05 -2.5)"/><path class="cls-1" d="M347.05,235.15a4.8,4.8,0,0,1-1.24-.16,5,5,0,0,1-3.71-4.16c-.57-4.15-2.2-7.09-5-9-5.71-3.87-15.36-2.65-18.59-1.85a5,5,0,0,1-2.44-9.7c.65-.16,16-3.92,26.6,3.25a20.27,20.27,0,0,1,6.63,7.3,37.37,37.37,0,0,1,20.14-8.57c11.38-1,22.79,3.78,33.92,14.23a5,5,0,0,1-6.85,7.29c-9-8.42-17.77-12.3-26.18-11.56-11.83,1-19.2,10.8-19.27,10.89A5,5,0,0,1,347.05,235.15Z" transform="translate(-2.05 -2.5)"/></svg>